PathFileType	4	(X/Y/Z)	C:\Users\WrightLab\Desktop\Jo\P1_boxCal2.trc
DataRate	CameraRate	NumFrames	NumMarkers	Units	OrigDataRate	OrigDataStartFrame	OrigNumFrames
100.00	100.00	       8	19	mm	100.00	516	       825
Frame#	Time	Headset_Front			Headset_Back			Headset_Left			Headset_Right			Left_Shoulder			Right_Shoulder			Sternum			C7			Left Elbow			Right Elbow			Left Wrist			Right Wrist			Left ASIS			Right ASIS			S2			Left Knee			Right Knee			Left Ankle			Right Ankle			
		X1	Y1	Z1	X2	Y2	Z2	X3	Y3	Z3	X4	Y4	Z4	X5	Y5	Z5	X6	Y6	Z6	X7	Y7	Z7	X8	Y8	Z8	X9	Y9	Z9	X10	Y10	Z10	X11	Y11	Z11	X12	Y12	Z12	X13	Y13	Z13	X14	Y14	Z14	X15	Y15	Z15	X16	Y16	Z16	X17	Y17	Z17	X18	Y18	Z18	X19	Y19	Z19	

516	5.150	-132.90598	1392.31616	1178.80457	-197.87431	1559.75171	925.24774	-61.51237	1484.90125	1009.42865	-259.93600	1432.20068	1107.70911	-5.56284	1298.33960	865.98267	-335.59207	1307.75696	1038.46765	-133.70935	1192.76819	1070.21655	-216.11171	1316.89465	840.60101	47.80051	976.91931	817.92090	-475.15042	1059.48022	1004.38745	142.28529	804.35236	868.29126	-545.99011	833.16400	1069.70447	-212.82759	924.86987	1121.21008	-43.01826	908.62518	1013.02740	-283.07367	940.29907	803.59210	-256.77225	507.77521	1144.83667	-81.96159	466.64661	846.88727	-185.86313	144.20937	1214.06189	-174.11911	106.18456	803.89948	
517	5.160	-130.84428	1391.61951	1182.98267	-195.07729	1560.05139	930.41852	-58.94389	1484.79810	1014.45111	-257.41061	1431.55347	1113.14587	-1.20804	1297.84021	872.16003	-331.61874	1306.83154	1044.03394	-129.96370	1192.27209	1076.62598	-213.24348	1316.25220	846.00439	50.99452	976.04083	823.83264	-471.69653	1058.61035	1009.37195	143.65970	803.09796	873.50269	-544.21649	833.03931	1074.70825	-208.54265	923.83594	1127.08240	-38.55403	908.65057	1018.48566	-279.19839	939.72968	809.86560	-251.23326	505.42468	1149.60608	-79.24902	467.03421	848.96198	-176.43610	147.50038	1222.84424	-174.20110	106.35612	804.42200	
518	5.170	-127.76087	1391.40479	1191.01599	-192.47455	1559.04382	936.45587	-55.62658	1483.93835	1021.91595	-255.26852	1431.19836	1118.64868	1.31776	1297.48376	877.47626	-328.59842	1306.00415	1050.13660	-127.47913	1192.11292	1084.43799	-208.74608	1315.13147	852.29742	52.56761	974.73901	829.56360	-468.60019	1057.80103	1014.96216	145.50612	801.90021	879.49060	-542.39172	832.75970	1079.37854	-203.93210	922.76416	1132.77490	-34.38487	907.94666	1023.43085	-275.49115	939.46948	816.42572	-245.11330	504.62509	1154.35376	-77.03909	466.63190	850.81885	-167.60580	149.48061	1231.43457	-174.21469	106.52268	805.12909	
519	5.180	-125.79145	1391.32336	1197.10254	-188.17514	1558.25854	941.73254	-53.07948	1483.69946	1026.51233	-252.24193	1430.15576	1124.38342	5.52417	1296.37061	884.66992	-325.19086	1305.00854	1056.72559	-123.00928	1191.08679	1088.70337	-205.81165	1314.43140	858.42651	56.05762	973.83307	835.74542	-465.27267	1057.07031	1020.68506	147.70154	801.17157	885.67169	-540.14917	831.56946	1083.81848	-199.35562	921.62256	1138.53345	-30.77057	906.90045	1029.10901	-271.70358	938.70245	822.66016	-240.08655	504.34570	1160.09277	-74.89116	466.32486	854.65302	-159.79848	152.11223	1239.99756	-173.89638	107.72969	805.23016	
520	5.190	-123.51660	1390.90833	1203.51868	-185.66882	1557.86646	948.15002	-50.26962	1483.01941	1034.04443	-249.83040	1429.65674	1130.25024	8.12516	1296.18152	890.34686	-321.76031	1303.94873	1062.59778	-119.11223	1190.21472	1095.76685	-203.00256	1313.52087	864.89728	58.74737	973.32538	842.10590	-461.81851	1055.95190	1026.33411	149.18237	799.93756	891.11951	-537.50751	831.06042	1089.47461	-194.97574	920.64600	1144.60864	-26.12570	906.13867	1034.11536	-267.11435	937.47803	829.78375	-234.11768	503.58347	1165.49280	-71.72578	466.22424	858.15411	-153.01469	153.30199	1247.50452	-174.09581	108.29636	805.50378	
521	5.200	-121.19736	1390.45984	1209.66931	-182.21199	1557.13367	953.95355	-47.66892	1482.68616	1037.87183	-247.36104	1429.07397	1136.25354	11.40397	1295.68298	896.96655	-318.34836	1302.77161	1069.21802	-115.21193	1189.24365	1101.23047	-199.37949	1312.88794	871.32318	61.52819	973.06635	848.21851	-458.72650	1055.43030	1032.78625	151.45180	798.86938	897.53723	-536.12292	830.95386	1094.59302	-190.50879	919.58429	1150.98669	-21.62585	904.95532	1040.26892	-264.05167	936.82654	836.07715	-228.94209	502.15576	1170.93018	-69.28661	465.68240	861.63379	-146.90263	154.41360	1254.92737	-173.93506	109.13190	805.74719	
522	5.210	-118.80430	1390.08118	1216.06750	-179.01086	1555.76990	960.33453	-44.76475	1482.01660	1046.07666	-244.81512	1428.78137	1142.15125	14.75980	1295.38928	903.76080	-315.43683	1302.03613	1076.26794	-111.14075	1188.15161	1107.68945	-195.66263	1311.32874	877.81311	64.32327	972.16754	854.42737	-455.70618	1054.78821	1039.06860	153.52771	798.26868	903.33057	-532.72955	830.34766	1099.91870	-186.01007	918.71838	1157.31885	-17.60971	904.40808	1045.75464	-260.16235	936.55396	842.39136	-223.41064	501.70746	1176.18335	-66.50484	465.29843	865.37488	-141.53830	154.31059	1260.60449	-173.95660	109.93795	806.04553	
523	5.220	-116.78988	1389.60278	1222.89233	-176.28458	1555.83313	966.08801	-42.04020	1481.57788	1053.28479	-242.12059	1427.97302	1148.34521	18.08773	1295.58264	910.27905	-312.00253	1300.91711	1082.94885	-109.11359	1188.37061	1115.44739	-192.89299	1310.56860	884.55682	66.68089	972.64948	859.96490	-452.19107	1053.85181	1045.35718	155.80026	797.53705	909.62317	-531.12903	830.18616	1105.25244	-182.17441	918.01190	1163.82922	-13.58784	904.01215	1052.40503	-256.23862	936.11292	849.15991	-217.01810	501.45871	1182.12207	-65.59335	465.09302	868.96240	-135.78438	152.90620	1265.09229	-173.61150	111.10117	805.74017	
